<?xml version="1.0" encoding="utf-8"?>
<!-- Generator: Adobe Illustrator 23.0.4, SVG Export Plug-In . SVG Version: 6.00 Build 0)  -->
<svg version="1.1" id="Layer_1" xmlns="http://www.w3.org/2000/svg" xmlns:xlink="http://www.w3.org/1999/xlink" x="0px" y="0px"
	 viewBox="0 0 1920 1080" style="enable-background:new 0 0 1920 1080;" xml:space="preserve">
<style type="text/css">
	.st0{fill:#231F20;}
</style>
<symbol  id="Regal_Vector_Pack_09" viewBox="-105.76 -111.75 211.52 223.5">
	<path class="st0" d="M16.5,94.82c-2.57,1.63-3.15,5.25-3.15,5.25c-1.98-3.04-0.7-6.89-0.7-6.89C14.75,93.18,16.5,94.82,16.5,94.82z
		 M-6.5,57.92c0,0,13.55-7.82,15.88-20.55c0,0,2.22,6.07-0.35,12.03c0,0,6.89-4.44,9.69-14.13c0,0,3.5,8.64,0.93,14.13
		c0,0,7.82-2.33,9.46-8.64c0,0,2.45,9.11-3.15,13.9c0,0,7.71,0.23,11.56-5.84c0,0,0.58,6.77-7.24,12.5
		c-7.82,5.72-11.44,15.76-4.44,21.37c7.01,5.61,9.22,2.69,10.74,6.07c1.52,3.39-3.85,7.01-9.34,4.2c0,0-0.35,3.15-3.85,2.57
		c-3.5-0.58-8.76-4.79-12.61-3.62c0,0,3.04-3.27,1.05-7.94c0,0-0.12,4.79-4.09,7.82c-3.97,3.04-5.14,9.11-5.14,9.11
		s-6.54-7.59-0.82-18.22C1.79,82.67-7.9,75.08-6.5,57.92z M23.74,90.61c0,0-2.1-4.32-6.66-3.74C17.09,86.88,15.8,89.68,23.74,90.61z
		 M-12.87-99.73c4.76-5.68,2.8-12.02,2.8-12.02c4.01,2.94,4.51,9.74,4.57,11.68C-8.49-100.47-11.06-100.15-12.87-99.73z
		 M23.28,75.55c0.12-4.09,2.57-6.19,9.23-5.96c6.66,0.23,8.76,3.85,8.76,3.85s-2.8-1.63-7.94-0.7c-5.14,0.93-2.92,5.37,3.97,8.41
		c6.89,3.04,13.08,0.7,13.08,0.7c-4.55,7.36-11.91,7.47-11.91,7.47c-1.05-4.32-1.63-2.45-8.52-5.49
		C23.04,80.81,23.28,75.55,23.28,75.55z M88.24,52.12c-0.64-3.53-2.93-4.24-2.93-4.24c4.88,0.48,6.12-3.41,6.12-3.41
		C92.18,48.54,88.24,52.12,88.24,52.12z M-1.85-99.22c6.73-2.88,7.89-9.33,7.89-9.33c2.33,4.71-0.79,11.41-1.45,12.72
		C2.39-97.47,0.21-98.54-1.85-99.22z M53.76,19.79c1.53,1.38,3.12,3.06,4.73,5.12c8.91,11.42,12.64,7.63,12.64,7.63
		s0.15,3.53-3.42,2.83c0,0,4.83,5.14,9.37,3.81c0,0-0.51,4.01-4.11,3.48c0,0,2.06,4.14,7.69,3.89c0,0-1.1,2.64-4.38,2.23
		c0.83,0.61,1.56,1.29,2.02,2.01c0.01,0,0.01,0,0.02,0c0.61-1.19,1.69-2.14,3.09-2.52c2.62-0.72,5.33,0.83,6.05,3.45
		c0.31,1.15,0.18,2.32-0.28,3.33c-0.05,0.13-0.12,0.25-0.18,0.38c-0.02,0.04-0.04,0.07-0.06,0.11c-0.63,1.1-1.7,2-3.13,2.47
		c-3.06,1.01-6.65-0.43-7.68-0.9c0,0.01,0.01,0.02,0.01,0.04c0.28,0.82,0.64,1.49,1.05,2.04c1.45-0.42,3.06-0.25,4.45,0.61
		c2.6,1.62,3.4,5.04,1.79,7.64c-0.71,1.15-1.78,1.93-2.96,2.32c-0.15,0.05-0.3,0.1-0.46,0.14c-0.05,0.01-0.09,0.03-0.14,0.04
		c-1.39,0.33-2.96,0.13-4.44-0.69c-1.79-0.99-3.06-2.71-3.91-4.24c-0.12,0.38-0.23,0.78-0.3,1.22c0.01,0.64,0.09,1.22,0.23,1.74
		c1.5,0.15,2.94,0.9,3.91,2.21c1.83,2.46,1.31,5.93-1.15,7.76c-1.08,0.8-2.36,1.14-3.61,1.07c-0.16,0-0.32-0.02-0.47-0.04
		c-0.05-0.01-0.09-0.01-0.14-0.02c-1.41-0.21-2.79-0.97-3.87-2.28c-2.28-2.77-2.27-7.04-2.2-8.38c-1.3,1.07-2.71,1.61-2.71,1.61
		c4.08-5.95,2.51-13.35,1.39-16.87c-1.4-3.45-3.85-6.68-7.54-10.41c0.15,1.66-0.13,2.66-0.13,2.66c-1.29-2.03-2.58-3.79-3.86-5.33
		C52.48,36.96,55.33,29.35,53.76,19.79z M84.95,62.73c3.35,4.4,7.5,2.44,7.5,2.44c-2.78,3.74-8.75,3.23-8.75,3.23
		C86.12,65.16,84.95,62.73,84.95,62.73z M77.37,74.11c1.5,5.32,6.08,5.03,6.08,5.03c-3.96,2.45-9.33-0.22-9.33-0.22
		C77.57,76.8,77.37,74.11,77.37,74.11z M75.01-62.65c0.04-2.74-0.36-5.13-1.01-7.21c6.27,3.79,12.18,0.96,12.18,0.96
		C83.72-64.26,76.45-62.88,75.01-62.65z M86.01,5.42c0.53-1.41,1.63-2.61,3.15-3.21c2.85-1.13,6.07,0.27,7.2,3.12
		c0.5,1.25,0.49,2.57,0.1,3.76c-0.05,0.15-0.1,0.3-0.16,0.45c-0.02,0.04-0.03,0.09-0.05,0.13c-0.57,1.31-1.66,2.45-3.2,3.15
		c-1.86,0.85-4,0.84-5.73,0.61c0.23,0.32,0.49,0.65,0.8,0.96c0.52,0.37,1.04,0.65,1.53,0.85c1.02-1.12,2.47-1.82,4.1-1.82
		c3.06,0,5.55,2.48,5.55,5.55c0,1.35-0.49,2.57-1.29,3.54c-0.1,0.12-0.21,0.24-0.31,0.36c-0.03,0.03-0.06,0.07-0.1,0.1
		c-1.01,1.01-2.44,1.67-4.13,1.75c-3.58,0.18-7-2.37-8.04-3.23c0.09,1.68-0.33,3.14-0.33,3.14c-2.35-6.82-9.23-9.97-12.72-11.17
		c-3.61-0.93-7.66-0.89-12.86-0.15c1.42,0.87,2.05,1.69,2.05,1.69c-15.14-1.12-21.94,4.22-24.88,8.2c-1.26,1.89-1.51,3.3-1.51,3.3
		c6.31-7.94,15.76-8.88,15.76-8.88c5.14,18.45-11.91,35.73-11.91,35.73c1.4-5.37-0.47-10.74-0.47-10.74
		c-2.1,7.01-7.47,8.64-7.47,8.64c3.04-9.22-1.87-16.46-1.87-16.46c-0.59,7.36-6.54,10.16-6.54,10.16c0.7-8.29-4.44-14.83-4.44-14.83
		c-0.47,6.31-5.95,12.61-5.95,12.61c0.69-5.54-2.96-9.14-4.1-10.11c-0.04,0.04-0.07,0.09-0.11,0.13C7.58,36.95,4.94,48.07-8.84,55.7
		c-17.28,9.58-73.33,19.85-94.82,56.05c0,0,3.5-29.66,53.02-49.98c18.92-7.76,31.25-12.53,39.55-16.04
		c-0.95-2.42-0.88-6.9,9.03-11.05c0,0-5.37-4.44,6.07-9.11c0,0-3.5-4.21,7.01-8.17c0,0,5.84-8.41,0.47-14.71c0,0,5.14,0.7,6.07,3.97
		c0,0,3.74-5.84-0.47-9.58c0,0,9.71-1.05,11.87,8.89c2.26-2,7.84-5.72,18.38-5.97c14.48-0.35,13.66-5.61,13.66-5.61
		s2.92,1.99,0.23,4.44c0,0,7.01-0.82,8.64-5.25c0,0,2.92,2.8,0.35,5.37c0,0,4.55,0.82,7.71-3.85c0,0,1.46,2.46-0.82,4.85
		c0.99-0.3,1.97-0.49,2.82-0.43c0.01-0.01,0.01-0.01,0.01-0.01c-0.6-1.2-0.71-2.64-0.19-3.98c0.99-2.54,3.84-3.79,6.37-2.8
		c1.12,0.43,1.97,1.24,2.51,2.21c0.07,0.12,0.13,0.25,0.2,0.38c0.02,0.04,0.04,0.08,0.05,0.11c0.51,1.16,0.59,2.56,0.12,3.99
		c-1.02,3.06-4.31,5.08-5.3,5.63c0.01,0,0.02,0.01,0.04,0.01C84.57,5.31,85.33,5.41,86.01,5.42z M81.77-7.84
		c3.29-3.64,0.91-6.94,0.91-6.94c3.71,1.82,4.23,7.12,4.23,7.12C83.7-9.26,81.77-7.84,81.77-7.84z M100.02,19.65
		c0.35-4.03-1.93-5.47-1.93-5.47c5.17,1.97,7.66-1.88,7.66-1.88C105.37,16.93,100.02,19.65,100.02,19.65z M93.47,1.3
		c5.53-0.07,6.44-4.57,6.44-4.57c1.34,4.46-2.63,8.95-2.63,8.95C96.12,1.81,93.47,1.3,93.47,1.3z M72.55-73.32
		c-1.41-2.66-3.17-4.55-4.58-5.78c7.39,0.55,11.39-4.75,11.39-4.75C79.32-78.87,74.09-74.5,72.55-73.32z M15.16-18.45
		c0,0,8.06-3.15,10.16-10.33c0,0,0.7,9.63,7.88,16.12c7.18,6.48,9.81,10.68,9.81,10.68S35.48-2.34,30.4,0.99
		c0,0-5.08-9.63-19.62-6.48c0,0,5.78,2.63,6.13,7.71c0,0-5.61-4.38-10.51-1.4c0,0,8.58,5.78,3.15,14.36c0,0-3.15,0.53-3.5,1.75
		c0,0,0.18-28.38-17.52-37.13C-29.16-28.96-30.21-7.77-30.21-7.77s-2.86-4.14-2.14-9.25c-3.95,2.56-10.17,7.77-16.82,17.92
		c-6.55,9.98-15.74,15.08-23.88,15.13c-3.88,0.01-7.61-1.24-10.34-3.88c-2.75-2.63-4.28-6.54-4.26-11.07c0-0.1,0-0.22,0-0.35
		c0.06-5,2.49-9.16,5.67-12.61C-77.2-17.1-70.55-21.46-64.54-27c6.03-5.54,11.37-12.04,13.88-21.35c0.66-2.44,0.94-4.61,0.94-6.52
		c-0.02-4.37-1.42-7.29-3.47-9.27c-1.86-1.78-4.4-2.83-7.29-3.02c-5.69,0.4-15.47,2.81-15.63,14.73
		c-0.23,16.82-7.47,26.62-7.47,26.62s2.57-8.17-0.47-14.71c0,0-4.44,23.35-21.72,33.16c0,0,10.51-17.05,9.34-32
		c0,0-3.5,1.17-3.5,7.01c0,0-6.07-13.31,7.01-24.99c0,0-4.9-0.47-8.41,3.97c0,0,3.97-16.82,26.86-21.02
		c14.24-2.62,23.15,1.1,27.39,7.66c2.33,3.09,3.68,7.16,3.67,11.86c0,2.53-0.38,5.25-1.16,8.16c-3.9,14.48-13.8,23.08-22.14,29.83
		c-4.18,3.38-8.01,6.36-10.63,9.24c-2.64,2.92-3.97,5.48-4.02,8.5c0,0.09,0,0.15,0,0.22c0.02,3.21,0.97,5.2,2.34,6.53
		c1.37,1.32,3.37,2.1,5.97,2.11C-67.65,9.76-60.01,6-54.45-2.54c5.9-9.04,11.67-14.61,16.14-17.98c-2.58-0.67-5.42-2.43-8.13-6.22
		c0,0,5.21,3.99,17.83-1.52c-1.94-0.3-4.5-1.06-6.32-2.98c0,0,14.01,2.63,25.22-6.48C0.5-46.02-3.1-54.61-7.8-55.01
		c-0.55,1.04-2.45,3.55-7,1c-5.61-3.15-10.69-12.44-9.28-28.03c0,0,1.25,3.22,2.74,6.14c0.02-0.18,0.04-0.36,0.07-0.54
		c1.8-12.29,2.72-20.55,10.5-21.61c5.33-1.07,11.62,1.61,13.84,3.21c4.38,3.15,7.01,8.93,0.88,10.86
		c-6.13,1.93-8.06-1.75-10.16-1.75c-0.28,0-0.52,0.14-0.73,0.37c-0.22,0.59-0.34,1.33-0.32,2.26c0.18,6.3-1.75,19.27,10.51,18.57
		c12.26-0.7,26.8,11.91,22.6,25.75C21.64-24.93,15.16-18.45,15.16-18.45z M10.29-87.95c-0.53-2.23-1.6-4.31-3.43-6.01
		c-0.31-0.41-0.51-0.65-0.51-0.65c7.42,2.3,12.58-2.34,12.58-2.34C17.94-92.14,12.12-88.87,10.29-87.95z M75.03-60.51
		c2.46,7.37,9.25,8.85,9.25,8.85c-4.48,2.01-10.54-0.81-12.35-1.76c1.5-1.73,2.56-3.81,2.87-6.29
		C74.96-60.2,75.03-60.51,75.03-60.51z M65-56.24c-5.14-3.85-3.28-7.56-4.51-9.27c-0.16-0.23-0.42-0.34-0.73-0.38
		c-0.61,0.17-1.28,0.5-2.02,1.06C52.72-61.01,41.07-55,48.8-45.46c7.73,9.54,5.98,28.71-7.71,33.38c-1,0.34-1.97,0.64-2.91,0.92
		c-2.27-1.8-10.93-9.43-10.93-21.31c0-3.36,0.28-5.61,0.62-7.24c6.36-1.09,8.55-6.19,6.77-9.17c-1.17,0.16-4.32,0.08-4.89-5.1
		c-0.71-6.39,3.86-15.94,17.33-23.9c0,0-1.88,2.9-3.39,5.81c0.16-0.09,0.31-0.18,0.48-0.26c11.03-5.72,18.27-9.78,23.67-4.09
		c3.98,3.7,5.48,10.38,5.47,13.12C73.3-57.89,70.14-52.39,65-56.24z M-27.93,50.31c-4.8,1.93-10.5,4.21-17.07,6.88
		c-12.67,4.41-26.24,9.93-35.08,15.79c0,0,6.77-18.45,42.04-28.26c0,0-26.86,4.44-35.73,11.68c0,0,9.58-18.22,38.3-22.89
		c0,0-10.27-1.17-21.25,3.5c0,0,2.57-10.04,20.32-13.08c15.22-2.6,34.2-10.88,37.69-23.78c2.64,8.59,2.66,16.61,2.66,16.76
		l-0.01,1.98c-1.28,1.1-2.08,2.3-2.42,3.6c-0.19,0.71-0.21,1.37-0.14,1.94c-4.14,1.98-6.35,4.22-6.75,6.82
		c-0.15,0.96-0.02,1.81,0.23,2.52c-7.42,3.7-8.75,7.77-8.42,10.71C-17.44,46.11-22.16,48-27.93,50.31z"/>
</symbol>
<use xlink:href="#Regal_Vector_Pack_09"  width="211.52" height="223.5" x="-105.76" y="-111.75" transform="matrix(1.0023 0 0 -0.9978 178 153.5005)" style="overflow:visible;"/>
</svg>
